<svg width="1004" height="596" viewBox="0 0 1004 596" fill="none" xmlns="http://www.w3.org/2000/svg">
<path d="M1057.26 572.44C1057.26 537.123 1036.94 488.223 1012.41 463.385L573.096 18.6286C548.562 -6.20952 508.311 -6.20952 483.778 18.6286L44.851 463.385C19.9338 488.223 0 537.123 0 572.44V650.835C51.3678 689.645 105.802 724.573 162.154 756.009V713.706L253.772 660.149V802.192C283.673 816.164 314.34 828.583 345.391 840.613V713.706L299.773 686.928V528.197L391.392 474.64V856.914C421.676 867.004 451.96 875.93 483.011 884.08V528.197L437.01 501.419V310.476L528.629 256.919L620.247 203.362V912.411C635.581 914.74 650.531 916.68 665.865 918.621V851.092V740.485V390.812L757.484 444.369V603.099L711.866 629.878V740.485V851.092V923.278C742.15 925.994 772.434 927.547 803.485 927.935V660.149V576.321L895.104 629.878V713.706V926.771C949.922 924.054 1004.36 918.621 1057.26 909.694V572.44Z" fill="#16357B"/>
</svg>
