<svg width="302" height="52" viewBox="0 0 302 52" fill="none" xmlns="http://www.w3.org/2000/svg">
<g clip-path="url(#clip0)">
<path d="M96.719 6.90729C103.906 6.90729 109.871 10.0785 113.797 15.6608L108.991 19.6358C105.923 15.2699 101.804 13.0543 96.6546 13.0543C87.9653 13.0543 81.8292 19.6358 81.8292 28.4545C81.8292 37.3818 88.1584 44.1153 97.0408 44.1153C102.49 44.1153 106.803 41.7694 109.377 37.7728V33.2765H96.6761V27.325H116.007V39.0978C112.317 45.7444 105.043 50.132 96.7404 50.132C84.6613 50.3275 74.7705 40.5096 74.9636 28.5197C74.6847 16.5297 84.7685 6.7118 96.719 6.90729Z" fill="white"/>
<path d="M134.823 17.6157C143.77 17.4202 151.343 25.0226 151.15 33.8413C151.343 42.6383 143.77 50.3058 134.823 50.132C126.005 50.3275 118.431 42.66 118.603 33.8413C118.431 24.8922 126.005 17.4854 134.823 17.6157ZM134.887 23.6976C129.438 23.6976 125.318 28.1287 125.318 33.9065C125.318 39.6842 129.459 43.985 134.823 43.985C140.272 43.985 144.392 39.5539 144.392 33.9065C144.413 28.1287 140.208 23.6976 134.887 23.6976Z" fill="white"/>
<path d="M182.389 49.4152H175.823V30.8438C175.823 26.543 173.142 23.6107 169.129 23.6107C165.053 23.6107 162.114 26.5865 162.114 30.8438V49.4152H155.549V18.3108H161.685V21.3517C164.002 18.8755 167.07 17.6157 170.889 17.6157C178.076 17.6157 182.41 22.5681 182.41 29.9749V49.4152H182.389Z" fill="white"/>
<path d="M206.676 49.4152C204.616 49.8496 202.792 50.1103 201.226 50.1103C194.146 50.1103 189.898 46.5698 189.898 39.2715V24.0668H184.899V18.3108H189.898V10.1437H196.527V18.3108H205.667V24.0668H196.527V38.7068C196.527 42.7034 198.587 44.0936 202.599 44.0936C203.543 44.0936 204.852 43.9633 206.676 43.7678V49.4152Z" fill="white"/>
<path d="M223.882 17.6157C229.568 17.6157 234.138 20.3308 236.841 24.8488L232.207 28.5196C230.019 25.3484 227.272 23.7627 223.947 23.7627C218.433 23.7627 214.314 28.1938 214.314 33.8413C214.314 39.5539 218.454 43.985 223.947 43.985C227.208 43.985 229.954 42.3993 232.207 39.2932L236.841 42.8989C234.095 47.3951 229.461 50.132 223.882 50.132C214.807 50.132 207.62 42.8989 207.62 33.8413C207.427 24.8922 215.065 17.4854 223.882 17.6157Z" fill="white"/>
<path d="M267.822 49.4152H261.257V30.9089C261.257 26.6082 258.618 23.6758 254.563 23.6758C250.487 23.6758 247.547 26.6516 247.547 30.9089V49.4152H240.982V1.91144H247.547V21.4169C249.607 18.9407 252.739 17.6157 256.43 17.6157C263.445 17.6157 267.822 22.6115 267.822 29.9749V49.4152Z" fill="white"/>
<path d="M278.593 36.0568C279.408 41.1178 283.356 44.2239 288.612 44.2239C291.809 44.2239 294.813 43.0292 297.559 40.5531L300.691 45.1145C297.194 48.4812 293.118 50.1103 288.419 50.1103C279.022 50.1103 271.899 43.0727 271.899 33.8847C271.706 24.9574 279.086 17.4202 287.797 17.594C295.928 17.594 302 23.741 302 31.8429C302 33.1679 301.807 34.5581 301.507 36.0351H278.593V36.0568ZM295.413 30.8655C295.349 26.1086 291.852 23.2632 287.518 23.2632C283.205 23.2632 279.687 26.2389 278.7 30.8655H295.413ZM290.221 0H298.224V1.19465L290.157 13.4236H285.265L290.221 0Z" fill="white"/>
<path d="M59.1728 32.1036C59.1728 30.127 58.0357 27.3902 56.6625 26L32.0752 1.10779C30.702 -0.28235 28.4493 -0.28235 27.0762 1.10779L2.51023 26C1.11566 27.3902 0 30.127 0 32.1036V36.4912C2.87496 38.6633 5.92157 40.6182 9.07545 42.3776V40.01L14.2032 37.0126V44.9624C15.8767 45.7444 17.5931 46.4394 19.3309 47.1128V40.01L16.7778 38.5113V29.6274L21.9055 26.6299V48.0251C23.6005 48.5898 25.2954 49.0894 27.0332 49.5456V29.6274L24.4587 28.1287V17.442L29.5864 14.4445L34.7141 11.447V51.1312C35.5723 51.2615 36.4091 51.3701 37.2673 51.4787V47.6993V41.5088V21.9382L42.395 24.9357V33.8196L39.8419 35.3183V41.5088V47.6993V51.7394C41.5368 51.8914 43.2317 51.9783 44.9696 52V37.0126V32.3208L50.0973 35.3183V40.01V51.9349C53.1654 51.7828 56.212 51.4787 59.1728 50.9791V32.1036Z" fill="#00BFFF"/>
</g>
<defs>
<clipPath id="clip0">
<rect width="302" height="52" fill="white"/>
</clipPath>
</defs>
</svg>
