<svg width="145" height="25" viewBox="0 0 145 25" fill="none" xmlns="http://www.w3.org/2000/svg">
<path d="M46.437 3.32072C49.8878 3.32072 52.7515 4.84533 54.6366 7.52908L52.3292 9.44007C50.8561 7.34111 48.8783 6.27597 46.4061 6.27597C42.2342 6.27597 39.2881 9.44007 39.2881 13.6798C39.2881 17.9717 42.3269 21.2089 46.5915 21.2089C49.208 21.2089 51.2785 20.0811 52.5146 18.1596V15.998H46.4164V13.1368H55.6976V18.7966C53.9258 21.9921 50.4338 24.1015 46.4473 24.1015C40.6478 24.1955 35.899 19.4754 35.9917 13.7111C35.8578 7.94678 40.6993 3.22673 46.437 3.32072Z" fill="white"/>
<path d="M64.7315 8.46881C69.027 8.37483 72.6633 12.0297 72.5706 16.2694C72.6633 20.4987 69.027 24.1849 64.7315 24.1014C60.4978 24.1954 56.8615 20.5091 56.9439 16.2694C56.8615 11.9671 60.4978 8.40616 64.7315 8.46881ZM64.7624 11.3927C62.146 11.3927 60.1682 13.523 60.1682 16.3008C60.1682 19.0785 62.1563 21.1461 64.7315 21.1461C67.348 21.1461 69.3258 19.0158 69.3258 16.3008C69.3361 13.523 67.3171 11.3927 64.7624 11.3927Z" fill="white"/>
<path d="M87.569 23.7569H84.4169V14.8285C84.4169 12.7609 83.1293 11.3511 81.203 11.3511C79.2458 11.3511 77.8346 12.7818 77.8346 14.8285V23.7569H74.6825V8.80316H77.6286V10.2651C78.7411 9.07466 80.2141 8.46899 82.0477 8.46899C85.4985 8.46899 87.5793 10.8499 87.5793 14.4108V23.7569H87.569Z" fill="white"/>
<path d="M99.2299 23.7569C98.241 23.9658 97.3654 24.0911 96.6134 24.0911C93.214 24.0911 91.1744 22.3889 91.1744 18.8802V11.5704H88.7742V8.80312H91.1744V4.87671H94.3574V8.80312H98.7457V11.5704H94.3574V18.6087C94.3574 20.5302 95.3464 21.1985 97.2727 21.1985C97.7259 21.1985 98.3543 21.1358 99.2299 21.0418V23.7569Z" fill="white"/>
<path d="M107.491 8.46883C110.221 8.46883 112.415 9.77416 113.713 11.9462L111.488 13.711C110.437 12.1864 109.119 11.4241 107.522 11.4241C104.875 11.4241 102.897 13.5544 102.897 16.2694C102.897 19.0158 104.885 21.1461 107.522 21.1461C109.088 21.1461 110.406 20.3838 111.488 18.8905L113.713 20.624C112.394 22.7856 110.169 24.1014 107.491 24.1014C103.134 24.1014 99.683 20.624 99.683 16.2694C99.5903 11.9671 103.257 8.40618 107.491 8.46883Z" fill="white"/>
<path d="M128.588 23.7569H125.436V14.8598C125.436 12.7922 124.169 11.3824 122.222 11.3824C120.264 11.3824 118.853 12.8131 118.853 14.8598V23.7569H115.701V0.918945H118.853V10.2964C119.842 9.10594 121.346 8.46894 123.118 8.46894C126.486 8.46894 128.588 10.8707 128.588 14.4108V23.7569Z" fill="white"/>
<path d="M133.759 17.3347C134.15 19.7678 136.046 21.2611 138.57 21.2611C140.104 21.2611 141.547 20.6868 142.865 19.4963L144.369 21.6893C142.69 23.3079 140.733 24.0911 138.477 24.0911C133.965 24.0911 130.545 20.7077 130.545 16.2904C130.452 11.9985 133.996 8.37496 138.178 8.4585C142.082 8.4585 144.997 11.4138 144.997 15.3088C144.997 15.9458 144.905 16.6142 144.761 17.3243H133.759V17.3347ZM141.835 14.8389C141.804 12.552 140.125 11.184 138.044 11.184C135.974 11.184 134.284 12.6147 133.81 14.8389H141.835ZM139.342 0H143.184V0.574343L139.311 6.45352H136.963L139.342 0Z" fill="white"/>
<path d="M28.4103 15.4346C28.4103 14.4843 27.8643 13.1685 27.2051 12.5002L15.4001 0.532983C14.7408 -0.135343 13.6592 -0.135343 12.9999 0.532983L1.20522 12.5002C0.535654 13.1685 0 14.4843 0 15.4346V17.544C1.38034 18.5882 2.84309 19.5281 4.35734 20.3739V19.2357L6.81929 17.7946V21.6166C7.62277 21.9925 8.44686 22.3267 9.28124 22.6504V19.2357L8.05542 18.5151V14.2441L10.5174 12.803V23.089C11.3311 23.3605 12.1449 23.6007 12.9793 23.82V14.2441L11.7432 13.5236V8.38581L14.2051 6.94473L16.6671 5.50366V24.5823C17.0791 24.6449 17.4809 24.6971 17.8929 24.7494V22.9323V19.9562V10.5474L20.3549 11.9885V16.2595L19.129 16.9801V19.9562V22.9323V24.8747C19.9428 24.9478 20.7566 24.9895 21.591 25V17.7946V15.539L24.0529 16.9801V19.2357V24.9686C25.526 24.8955 26.9887 24.7494 28.4103 24.5092V15.4346Z" fill="white"/>
</svg>
